<svg xmlns="http://www.w3.org/2000/svg" xmlns:ns2="http://design.blush" xmlns:xlink="http://www.w3.org/1999/xlink" width="264px" height="280px" viewBox="0 0 264 280" version="1.1">
    <title id="circle_Title">Avataaar/Circle</title>
    <desc>Created with python_avatars</desc>
    <defs>
        <circle id="circle_path-1" cx="120" cy="120" r="120" />
        <path d="M-3.19744231e-14,160 L-3.19744231e-14,-1.42108547e-14 L264,-1.42108547e-14 L264,160 L252,160 C252,226.27417 198.27417,280 132,280 C65.72583,280 12,226.27417 12,160 L12,160 L-3.19744231e-14,160 Z" id="circle_path-3" />
        <path d="M100,0 C130.927946,-5.68137151e-15 156,25.072054 156,56 L156.000809,62.1660527 C161.675838,63.1185422 166,68.05429 166,74 L166,88 C166,94.0524166 161.519235,99.0582945 155.693975,99.8813638 C153.627928,119.686472 141.237929,136.421678 124.001014,144.610469 L124,163 L128,163 C167.764502,163 200,195.235498 200,235 L200,244 L0,244 L0,235 C-4.86974701e-15,195.235498 32.235498,163 72,163 L76,163 L75.9999836,144.610943 C58.7625487,136.422324 46.3721119,119.686854 44.3051107,99.8809698 C38.480765,99.0582945 34,94.0524166 34,88 L34,74 C34,68.053942 38.3246685,63.1179645 44.0001873,62.1658855 L44,56 C44,25.072054 69.072054,5.68137151e-15 100,0 Z" id="circle_path-5" />
        <path d="M83,36.3476251 C83,52.6289957 105.161905,65.8276544 132.5,65.8276544 C159.838095,65.8276544 182,52.6289957 182,36.3476251 C182,34.9853134 181.844841,33.6445843 181.544472,32.3313638 C210.784239,41.4879251 232,68.792221 232,101.051724 L232,110 L32,110 L32,101.051724 C32,68.3970853 53.7386736,40.8197864 83.5337207,32.0021267 C83.1821692,33.4207025 83,34.871494 83,36.3476251 Z" id="circle_path-7" />
        <rect id="circle_path-9" x="0" y="0" width="264" height="280" />
        <path d="M74,0 C114.869071,0 148,33.1309285 148,74 L148,84.1482318 L148,197.608051 C135.525121,187.236892 119.490913,181 102,181 L102,181 L98,181 L98,162.610951 C115.530782,154.282984 128.048193,137.114792 129.791419,116.867187 C135.569129,116.002364 140,111.018625 140,105 L140,105 L140,92 C140,87.3536213 137.359271,83.3240177 133.496777,81.3301515 C132.723933,81.0500337 131.951808,80.748163 131.180891,80.4262497 C130.794819,80.3202581 130.400778,80.2331546 130,80.1659169 L130,80.1659169 L130.000458,79.9172528 C117.224481,74.2339715 104.877985,63.0706967 96.1104311,47.8848473 C93.1752556,42.8009742 90.8310687,37.5951441 89.0661426,32.3970356 C80.4313947,42.9409152 67.7445474,53.6023901 52.3415164,62.4953343 C42.777598,68.0170651 33.1467898,72.2910056 24,75.2659587 L24.0003852,137.246608 C29.6019576,148.318362 38.7728825,157.277529 50,162.610951 L50,162.610951 L50,181 L46,181 C38.3273639,181 30.9350359,182.200142 24.0004995,184.422941 L24,230 C24,244.105888 13.5691766,255.775526 0,257.716445 L0,74 C0,33.1309285 33.1309285,0 74,0 Z" id="circle_path-11" />
    </defs>
    <g id="circle_Avataaar/Circle" stroke="none" stroke-width="1" fill="none" fill-rule="evenodd">
        <g id="circle_Circle" transform="translate(12.000000, 40.000000)">
            <mask id="circle_mask-2" fill="white">
                <use xlink:href="#circle_path-1" />
            </mask>
            <use id="circle_Background-Color" fill="#FFFFFF" xlink:href="#circle_path-1" />
            <g id="circle_Fabric-Color" mask="url(#circle_mask-2)" fill="">
                <rect id="circle_🖍Color" x="0" y="0" width="240" height="240" />
            </g>
        </g>
        <mask id="circle_mask-4" fill="white">
            <use xlink:href="#circle_path-3" />
        </mask>
        <g id="circle_Mask" />
        <g id="circle_Avataaar" mask="url(#circle_mask-4)">
            <g id="circle_Body" transform="translate(32.000000, 36.000000)">
                <mask id="circle_mask-6" fill="white">
                    <use xlink:href="#circle_path-5" />
                </mask>
                <use fill="#D0C6AC" xlink:href="#circle_path-5" />
                <g id="circle_Skin-Color" mask="url(#circle_mask-6)" fill="#614335">
                    <g transform="translate(-32.000000, 0.000000)" id="circle_Color">
                        <rect x="0" y="0" width="264" height="244" />
                    </g>
                </g>
                <path d="M44,94 C44,124.927946 69.072054,150 100,150 C130.927946,150 156,124.927946 156,94 L156,94 L156,102 C156,132.927946 130.927946,158 100,158 C69.072054,158 44,132.927946 44,102 Z" id="circle_Neck-Shadow" fill-opacity="0.100000001" fill="#000000" mask="url(#circle_mask-6)" />
            </g>
            <g id="circle_Clothing" transform="translate(0.000000, 170.000000)">
                
            <g id="astronaut_suit_Clothing/Astronaut suit" stroke="none" stroke-width="1" fill="none" fill-rule="evenodd"><g id="astronaut_suit_Astronaut-suit" transform="translate(32.000000, 22.000000)"><path d="M127.9997,6.7405 L123.9997,6.7405 L124.0007,0.0005 L75.9997,0.0005 L75.9997,6.7405 L71.9997,6.7405 C32.6327,6.7405 0.6457,38.3345 0.0097,77.5495 L-0.0003,78.7405 L-0.0003,87.7405 L199.9997,87.7405 L199.9997,78.7405 C199.9997,38.9755 167.7647,6.7405 127.9997,6.7405" id="astronaut_suit_Fill-1" fill="#B0DBE2" /><path d="M180.2253,29.2054 C168.8273,38.7164 145.7303,58.8474 145.7303,58.8474 L145.7303,87.7404 L199.9993,87.7404 L199.9993,78.7404 C199.9993,59.5424 192.4713,42.1134 180.2253,29.2054" id="astronaut_suit_Fill-4" fill="#D4EEF4" /><path d="M0.0095,77.5491 L0.0005,78.7401 L0.0005,87.7401 L54.3105,87.7401 L54.3105,58.8471 C54.3105,58.8471 31.1785,38.6861 19.7905,29.1841 C7.7865,41.8261 0.3135,58.8131 0.0095,77.5491" id="astronaut_suit_Fill-6" fill="#D4EEF4" /><path d="M121.8503,50.7298 L78.1893,50.7298 C73.4013,50.7298 69.5203,54.6118 69.5203,59.3998 L69.5203,87.7738 L130.5203,87.7738 L130.5203,59.3998 C130.5203,54.6118 126.6383,50.7298 121.8503,50.7298" id="astronaut_suit_Fill-8" fill="#60ADE6" ns2:color="Top-500" /><path d="M83.6935,58.473 C80.9605,58.473 78.7445,60.689 78.7445,63.422 C78.7445,66.156 80.9605,68.371 83.6935,68.371 C86.4265,68.371 88.6425,66.156 88.6425,63.422 C88.6425,60.689 86.4265,58.473 83.6935,58.473" id="astronaut_suit_Fill-10" fill="#EBFCFF" /><path d="M100.0202,58.473 C97.2872,58.473 95.0712,60.689 95.0712,63.422 C95.0712,66.156 97.2872,68.371 100.0202,68.371 C102.7532,68.371 104.9692,66.156 104.9692,63.422 C104.9692,60.689 102.7532,58.473 100.0202,58.473" id="astronaut_suit_Fill-12" fill="#EBFCFF" /><path d="M116.3464,58.473 C113.6144,58.473 111.3974,60.689 111.3974,63.422 C111.3974,66.156 113.6144,68.371 116.3464,68.371 C119.0804,68.371 121.2964,66.156 121.2964,63.422 C121.2964,60.689 119.0804,58.473 116.3464,58.473" id="astronaut_suit_Fill-14" fill="#EBFCFF" /><path d="M117.8112,87.7737 L82.2292,87.7737 C80.3042,87.7737 78.7442,86.2137 78.7442,84.2897 L78.7442,78.4967 C78.7442,76.5717 80.3042,75.0107 82.2292,75.0107 L117.8112,75.0107 C119.7362,75.0107 121.2962,76.5717 121.2962,78.4967 L121.2962,84.2897 C121.2962,86.2137 119.7362,87.7737 117.8112,87.7737" id="astronaut_suit_Fill-16" fill="#B0DBE2" /><path d="M164.361,16.6038 C153.687,10.3438 141.267,6.7408 128,6.7408 L124,6.7408 L124.001,-0.0002 L76,-0.0002 L76,6.7408 L72,6.7408 C59.006,6.7408 46.827,10.1998 36.303,16.2208 C95.548,34.5108 143.322,23.6098 164.361,16.6038" id="astronaut_suit_Fill-18" fill="#60ADE6" ns2:color="Top-500" /></g></g></g>
            <g id="circle_Face" transform="translate(76.000000, 82.000000)" fill="#000000">
                <g id="circle_Mouth" transform="translate(2.000000, 52.000000)">    
                    
                <defs>
        <path d="M35.117844,15.1280772 C36.1757121,24.6198025 44.2259873,32 54,32 C63.8042055,32 71.8740075,24.574136 72.8917593,15.0400546 C72.9736685,14.272746 72.1167429,13 71.042767,13 C56.1487536,13 44.7379213,13 37.0868244,13 C36.0066168,13 35.0120058,14.1784435 35.117844,15.1280772 Z" id="concerned_path-1" />
    </defs>
    <g id="concerned_Mouth/Concerned" stroke="none" stroke-width="1" fill="none" fill-rule="evenodd">
        <mask id="concerned_mask-2" fill="white">
            <use xlink:href="#concerned_path-1" transform="translate(54.003637, 22.500000) scale(1, -1) translate(-54.003637, -22.500000)" />
        </mask>
        <use id="concerned_Mouth" fill-opacity="0.699999988" fill="#000000" transform="translate(54.003637, 22.500000) scale(1, -1) translate(-54.003637, -22.500000)" xlink:href="#concerned_path-1" />
        <path d="M44,2 L65,2 C67.7614237,2 70,4.23857625 70,7 L70,13 C70,15.7614237 67.7614237,18 65,18 L44,18 C41.2385763,18 39,15.7614237 39,13 L39,7 C39,4.23857625 41.2385763,2 44,2 Z" id="concerned_Teeth" fill="#FFFFFF" mask="url(#concerned_mask-2)" />
        <g id="concerned_Tongue" mask="url(#concerned_mask-2)" fill="#FF4F6D">
            <g transform="translate(38.000000, 24.000000)">
                <circle id="concerned_friend?" cx="11" cy="11" r="11" />
                <circle id="concerned_How-you-doing" cx="21" cy="11" r="11" />
            </g>
        </g>
    </g>
</g>
                <g id="circle_Nose" transform="translate(28.000000, 40.000000)" fill-opacity="0.16">
                    
                <g id="wide_Nose/Wide" stroke="none" stroke-width="1" fill="none" fill-rule="evenodd"><path d="M13,6 C13,12.627417 16.8281211,18 28,18 C39.1718789,18 43,12.627417 43,6 C39.0361818,6 32.8972468,9 27.83815,9 C23.0794079,9 17.1013384,6 13,6 Z" id="wide_Nose" fill-opacity=".16" fill="#000" /></g></g>
                <g id="circle_Eyes" transform="translate(0.000000, 8.000000)">
                    
                <g id="eye_roll_Eyes/Eye-Roll-🙄" stroke="none" stroke-width="1" fill="none" fill-rule="evenodd">
        <circle id="eye_roll_Eyeball" fill="#FFFFFF" cx="30" cy="22" r="14" />
        <circle id="eye_roll_The-white-stuff" fill="#FFFFFF" cx="82" cy="22" r="14" />
        <circle id="eye_roll_Eye" fill-opacity="0.699999988" fill="#000000" cx="30" cy="14" r="6" />
        <circle id="eye_roll_Eye" fill-opacity="0.699999988" fill="#000000" cx="82" cy="14" r="6" />
    </g>
</g>
                <g id="circle_Eyebrow" fill-opacity="0.599999964">
                    
                <g id="angry_natural_Eyebrow/Natural/Angry-Natural" stroke="none" stroke-width="1" fill="none" fill-rule="evenodd" fill-opacity="0.599999964">
        <path d="M44.8565785,12.2282877 C44.8578785,12.2192877 44.8578785,12.2192877 44.8565785,12.2282877 M17.5862288,7.89238094 C15.2441598,8.3302947 13.0866155,9.78806858 12.1523766,12.0987479 C11.8009169,12.967391 11.3917103,14.9243181 11.7083227,15.8073302 C11.8284629,16.14295 12.0332321,16.1008692 12.9555234,16.0430509 C14.643791,15.9369937 16.9330912,13.6622369 18.7484684,13.2557982 C21.2753939,12.6899315 23.9825295,13.1148447 26.4961798,13.6882381 C30.8109365,14.6725177 36.4854008,17.7875215 40.9461842,16.1699775 C41.2783949,16.0495512 45.6210294,12.9225732 44.3685187,12.2769925 C43.9238011,11.9068186 41.1370145,12.0854053 40.6216067,11.9988489 C38.2277647,11.5971998 35.7297127,10.9345131 33.373373,10.3265657 C28.2329017,9.00016592 22.9666484,6.88073171 17.5862288,7.89238094" id="angry_natural_Eyebrows-The-Web" fill="#000000" transform="translate(28.094701, 12.127505) rotate(17.000000) translate(-28.094701, -12.127505) " />
        <path d="M100.918293,12.2094196 C100.919593,12.2004196 100.919593,12.2004196 100.918293,12.2094196 M73.5862288,7.89238094 C71.2441598,8.3302947 69.0866155,9.78806858 68.1523766,12.0987479 C67.8009169,12.967391 67.3917103,14.9243181 67.7083227,15.8073302 C67.8284629,16.14295 68.0332321,16.1008692 68.9555234,16.0430509 C70.643791,15.9369937 72.9330912,13.6622369 74.7484684,13.2557982 C77.2753939,12.6899315 79.9825295,13.1148447 82.4961798,13.6882381 C86.8109365,14.6725177 92.4854008,17.7875215 96.9461842,16.1699775 C97.2783949,16.0495512 101.621029,12.9225732 100.368519,12.2769925 C99.9238011,11.9068186 97.1370145,12.0854053 96.6216067,11.9988489 C94.2277647,11.5971998 91.7297127,10.9345131 89.373373,10.3265657 C84.2329017,9.00016592 78.9666484,6.88073171 73.5862288,7.89238094" id="angry_natural_Eyebrows-The-Web" fill="#000000" transform="translate(84.094701, 12.127505) scale(-1, 1) rotate(17.000000) translate(-84.094701, -12.127505) " />
    </g>
</g>
            </g>
            <g id="circle_Top">
                
            <defs>
        <path d="M116,0 C127.211125,0 137.909274,2.19631647 147.687647,6.18215166 C148.610063,6.06196359 149.5487,6 150.5,6 C157.20097,6 163.273609,9.07451734 167.696813,14.0565753 C185.740112,14.9903576 201.159349,27.3683704 208.470051,44.9557881 C216.493006,49.5558365 222,59.0429312 222,70 C222,70.5797069 221.984585,71.155299 221.954198,71.7262703 C228.261198,81.2649995 232,93.1347507 232,106 C232,113.33094 230.786009,120.338641 228.574705,126.776091 C228.853754,128.467881 229,130.214422 229,132 C229,141.455043 224.899348,149.815506 218.619686,154.885227 C211.258904,172.684098 195.389647,185 177,185 C175.501611,185 174.019954,184.918235 172.558269,184.7584 C167.111013,189.906495 160.121612,193 152.5,193 C148.058842,193 143.832349,191.949612 140.000349,190.054355 L140.001014,180.610469 C157.531251,172.282329 170.048207,155.114429 171.791415,134.867236 C177.471002,134.017289 181.849484,129.186467 181.9962,123.304975 L182,123 L182,110 C182,108.014881 181.517977,106.142344 180.66459,104.493048 C177.966884,103.690147 174.996344,101.441815 172.021298,98.1710101 C172.014833,98.1684128 172.007822,98.1672297 172.000809,98.1660527 L172.000578,98.1482144 C165.15458,90.6107624 158.28802,77.6643047 154.667387,64.4375583 C143.683333,66.1120035 130.513036,67.0867832 116.353789,67.0867832 C101.905209,67.0867832 88.4864083,66.0717587 77.3694123,64.3345498 C73.7552209,77.6016095 66.866618,90.6012163 59.9999953,98.157119 L60.0001873,98.1658855 L59.9901075,98.1679956 C57.0105489,101.444388 54.0354269,103.695335 51.3340398,104.498009 C50.5253168,106.059631 50.0504689,107.824174 50.0037999,109.695025 L50,110 L50,123 C50,129.018777 54.4310943,134.002616 60.2090181,134.867253 C61.9518594,155.115197 74.4696989,172.283632 92.0009808,180.611417 L92.0011384,190.053619 C88.1687443,191.949341 83.9417323,193 79.5,193 C71.8787605,193 64.8896703,189.906797 59.4414808,184.758965 C57.9800457,184.918235 56.4983893,185 55,185 C36.6103527,185 20.7410963,172.684098 13.3790205,154.885043 C7.10065151,149.815506 3,141.455043 3,132 C3,130.214422 3.14624584,128.467881 3.42579502,126.775169 C1.21399074,120.338641 0,113.33094 0,106 C0,93.1347507 3.73880224,81.2649995 10.0453187,71.7257869 C10.015415,71.155299 10,70.5797069 10,70 C10,59.0429312 15.5069937,49.5558365 23.5303378,44.956594 C30.8406711,27.3683817 46.2599587,14.9903972 64.3034353,14.0567145 C68.7263913,9.07451734 74.7990304,6 81.5,6 C82.4512999,6 83.3899366,6.06196359 84.3129883,6.18255189 C94.0907062,2.19632063 104.788864,0 116,0 Z" id="fro_path-1" />
    </defs>
    <g id="fro_Top/Long-Hair/Fro" stroke="none" stroke-width="1" fill="none" fill-rule="evenodd">
        <path d="M97.3896087,42.3923264 C107.880511,40.9293514 120.189742,40.0867832 133.353789,40.0867832 C146.22875,40.0867832 158.286026,40.8927515 168.625585,42.2974868 C168.785566,39.3365659 169.136623,36.5967441 169.664482,34.1152734 C187.354365,45.9536992 199,66.1168577 199,89 L199.001113,109.776682 C189.979495,108.708272 177.129693,89.3920217 171.667447,69.4377806 C160.684858,71.1118906 147.513856,72.0867832 133.353789,72.0867832 C118.904694,72.0867832 105.485452,71.0716864 94.3682241,69.3343642 C88.921994,89.3307155 76.0372341,108.71789 66.9995261,109.777628 L67,89 C67,66.1129662 78.6495962,45.9468414 96.3425686,34.1078455 C96.8779574,36.6186627 97.2315682,39.3925882 97.3896087,42.3923264 Z" id="fro_Shadow" fill-opacity="0.16" fill="#000000" />
        <g id="fro_Hair" transform="translate(16.000000, 0.000000)">
            <mask id="fro_mask-2" fill="white">
                <use xlink:href="#fro_path-1" />
            </mask>
            <use fill="#314756" xlink:href="#fro_path-1" />
            <g id="fro_Hair-Color" mask="url(#fro_mask-2)" fill="#D6B370">
                <g transform="translate(-16.000000, 0.000000)" id="fro_Color">
                    <rect x="0" y="0" width="264" height="280" />
                </g>
            </g>
        </g>
        <g id="fro_Facial-Hair" transform="translate(49.000000, 72.000000)" />
        <g id="fro_Accessory" transform="translate(62.000000, 85.000000)"><g id="sunglasses_2_Accesories/Sunglasses" stroke="none" stroke-width="1" fill="none" fill-rule="evenodd"><path d="M88.420644,10.0315667 L111.711555,10.4879 L112.418885,10.5173904 C116.716907,10.7306495 119.842183,11.5608236 122.25907,15.0052776 L123.270648,15.0612226 C125.98538,15.2235685 128.815928,15.5199023 131.241565,16.6393667 C134.626236,18.2013667 135.149293,21.7387 130.882414,22.2260333 C128.960673,22.4457 127.036739,22.0827 125.144457,21.7450333 L124.805075,21.6912775 C125.908933,31.1522104 118.598088,42.5597165 110.577413,46.0372333 C99.6003746,50.7965667 87.3375086,45.5292333 81.5337832,36.0035667 C78.9077874,31.6933472 77.3913647,25.4882292 77.0679314,20.1428905 C76.2485064,19.7454964 75.4674464,19.2201465 74.7189648,18.8553 C72.7120473,17.8773 69.3809643,17.7566333 67.2126933,18.8553 C66.4674989,19.2329059 65.6844252,19.7618811 64.860867,20.1592462 C64.5358863,25.500774 63.019749,31.6993553 60.3955746,36.0058333 C54.5921826,45.5318333 42.3293166,50.7991667 31.352278,46.0395 C23.3308758,42.5619527 16.0191895,31.1527353 17.1248105,21.6913039 L16.7871634,21.7450333 L15.9116787,21.9004644 C14.302955,22.1806014 12.6752968,22.4119051 11.0492092,22.2260333 C6.7823325,21.7387 7.30538922,18.2013667 10.6900582,16.6393667 C13.4186633,15.3800781 16.6596437,15.1623841 19.6724863,15.0063698 C22.088769,11.5628588 25.2136434,10.7331687 29.5106444,10.5199823 L30.2178029,10.4905 L54.367281,10.0138705 C59.1910659,9.92297948 63.3004405,10.2797475 64.5415862,14.6398662 C66.6301126,13.8258114 69.0470363,13.3846333 70.8914864,13.3846333 C72.750063,13.3846333 75.2403142,13.8326884 77.3827667,14.6590316 C78.6884926,10.0210681 83.2241204,9.89209727 88.420644,10.0315667 Z M54.6792964,17.2841303 L53.1743719,17.2627916 C48.2545196,17.2171575 28.0180517,17.1530306 25.6158944,19.1491667 C23.2262624,21.1345 24.5340925,27.0731667 25.1565036,29.5561667 C26.2203032,33.7998333 28.6396056,38.0601667 32.1723805,40.7525 C35.160879,43.03 38.9870799,43.1875781 42.598636,42.8394006 L42.8137377,42.8154434 C42.5755438,42.8270989 44.279595,42.5883296 44.6288896,42.5222918 L44.6612747,42.5158333 C45.7297416,42.2861667 46.7985419,41.9835 47.8106684,41.5641667 C49.7165732,40.7748333 51.5084639,39.6188333 52.9776475,38.1685 C55.7666627,35.4145 56.9648125,31.7228333 57.6852359,27.9548333 C58.1572949,25.4871667 58.5553446,22.6705 58.1459601,20.1651667 C57.7671628,17.8464167 56.7581109,17.3549128 54.6792964,17.2841303 L54.6792964,17.2841303 Z M90.2432286,17.2498018 L87.6805515,17.2725667 C85.3089217,17.2952333 84.1877816,17.6892333 83.7837311,20.1625667 C83.3743466,22.6679 83.7723963,25.4845667 84.244122,27.9522333 C84.9648787,31.7202333 86.1630285,35.4119 88.9520437,38.1659 C90.4212273,39.6162333 92.213118,40.7722333 94.1190228,41.5619 C94.9624616,41.9110667 95.8452571,42.1794463 96.7344192,42.392116 L97.2684165,42.5132333 C97.5131654,42.5657289 99.2030063,42.8028032 99.1366495,42.8130415 L98.9855976,42.8019336 C102.697275,43.192883 106.673335,43.1001622 109.757311,40.7499 C113.290086,38.0575667 115.709388,33.7975667 116.773188,29.5539 L116.961141,28.7771479 C117.606864,25.9999642 118.480835,20.9475202 116.313797,19.1465667 C114.107164,17.3129068 96.8513244,17.2177679 90.2432286,17.2498018 L90.2432286,17.2498018 Z" id="sunglasses_2_Shape" fill-opacity=".16" fill="#000" /><g id="sunglasses_2_Sunglasses" transform="translate(8.000000, 8.000000)"><path d="M47.0104611,6.27728008 C49.5212682,6.30134922 50.7082016,6.72633117 51.1359635,9.39189846 C51.5693724,12.0919529 51.1479634,15.1275382 50.648202,17.7869984 C49.8855011,21.8478573 48.6170388,25.8264499 45.6643523,28.794498 C44.1089507,30.3575551 42.2119044,31.6034024 40.1941529,32.4540848 C39.1226305,32.9060098 37.9911085,33.2322006 36.8599395,33.4797175 C36.5292357,33.5519249 33.7060778,33.9478084 35.4375958,33.7466335 C31.3967988,34.2161613 27.0129452,34.1974808 23.6381438,31.5793333 C19.8980507,28.6777448 17.3367734,24.0862872 16.2105455,19.5127916 C15.5516086,16.8368063 14.1670294,10.4365709 16.6968952,8.29693227 C19.5948762,5.84547255 47.0104611,6.27728008 47.0104611,6.27728008 L47.0104611,6.27728008 Z" id="sunglasses_2_shades" fill-opacity=".7" fill="#150662" /><path d="M78.9192315,6.27468008 C76.4084239,6.29910846 75.2214902,6.72373117 74.7937283,9.38929846 C74.3603192,12.0893529 74.7817283,15.1249382 75.2811369,17.7843984 C76.0441909,21.8452573 77.3126534,25.8238499 80.2653406,28.791898 C81.8207425,30.3549551 83.7177893,31.6008024 85.7355412,32.4518441 C86.8070638,32.9034098 87.938586,33.2296006 89.0697553,33.4771175 C89.4004591,33.5493249 92.2232647,33.9455676 90.4920992,33.7440335 C94.5328971,34.2135613 98.9167517,34.1948808 102.291554,31.5767333 C106.031648,28.6751448 108.592926,24.0840464 109.719154,19.5105508 C110.378091,16.8342063 111.762317,10.4343302 109.232804,8.29433227 C106.334822,5.84287255 78.9192315,6.27468008 78.9192315,6.27468008 L78.9192315,6.27468008 Z" id="sunglasses_2_shades" fill-opacity=".7" fill="#150662" /><g id="sunglasses_2_Glasses" fill="#252C2F"><path d="M46.2491397,7.27516667 C48.6207695,7.2975 49.7419096,7.69183333 50.1459601,10.1651667 C50.5553446,12.6705 50.1572949,15.4871667 49.6852359,17.9548333 C48.9648125,21.7228333 47.7666627,25.4145 44.9776475,28.1685 C43.5084639,29.6188333 41.7165732,30.7748333 39.8106684,31.5641667 C38.7985419,31.9835 37.7297416,32.2861667 36.6612747,32.5158333 C36.3489024,32.5828333 33.6822357,32.9501667 35.3177735,32.7635 C31.5009631,33.1991667 27.3601122,33.1818333 24.1723805,30.7525 C20.6396056,28.0601667 18.2203032,23.7998333 17.1565036,19.5561667 C16.5340925,17.0731667 15.2262624,11.1345 17.6158944,9.14916667 C20.3532365,6.8745 46.2491397,7.27516667 46.2491397,7.27516667 L46.2491397,7.27516667 Z M22.2178029,0.4905 C16.7774562,0.677833333 13.1466691,1.63383333 10.4633337,7.06916667 C5.54571911,17.0301667 13.9627711,31.9688333 23.352278,36.0395 C34.3293166,40.7991667 46.5921826,35.5318333 52.3955746,26.0058333 C55.4689587,20.9621667 57.0224862,13.3231667 56.9224737,7.50383333 C56.7951245,0.0765 51.6071427,-0.1295 45.5090472,0.0338333333 L22.2178029,0.4905 Z" id="sunglasses_2_Frame" /><path d="M79.6805515,7.27256667 C77.3089217,7.29523333 76.1877816,7.68923333 75.7837311,10.1625667 C75.3743466,12.6679 75.7723963,15.4845667 76.244122,17.9522333 C76.9648787,21.7202333 78.1630285,25.4119 80.9520437,28.1659 C82.4212273,29.6162333 84.213118,30.7722333 86.1190228,31.5619 C87.1311493,31.9809 88.1999496,32.2835667 89.2684165,32.5132333 C89.5807888,32.5802333 92.2471221,32.9479 90.6119177,32.7609 C94.4287281,33.1965667 98.569579,33.1792333 101.757311,30.7499 C105.290086,28.0575667 107.709388,23.7975667 108.773188,19.5539 C109.395599,17.0705667 110.703095,11.1322333 108.313797,9.14656667 C105.576455,6.8719 79.6805515,7.27256667 79.6805515,7.27256667 L79.6805515,7.27256667 Z M103.711555,0.4879 C109.152235,0.675233333 112.783022,1.63156667 115.466357,7.06656667 C120.383639,17.0275667 111.96692,31.9662333 102.577413,36.0372333 C91.6003746,40.7965667 79.3375086,35.5292333 73.5337832,26.0035667 C70.4607325,20.9595667 68.907205,13.3205667 69.0068841,7.50123333 C69.1345667,0.0739 74.3225485,-0.1321 80.420644,0.0315666667 L103.711555,0.4879 Z" id="sunglasses_2_Frame" /><path d="M13.1969483,4.9267 C9.78501392,5.11836667 5.88606327,5.16436667 2.69005822,6.63936667 C-0.69461078,8.20136667 -1.2176675,11.7387 3.04920921,12.2260333 C4.97094906,12.4457 6.89488267,12.0827 8.78716336,11.7450333 C10.336903,11.4683667 12.4419791,11.5580333 13.9064752,10.9657 C16.6355213,9.86236667 16.4603333,4.74003333 13.1969483,4.9267" id="sunglasses_2_Frame" /><path d="M112.73467,4.9267 C116.146606,5.11836667 120.045559,5.16436667 123.241565,6.63936667 C126.626236,8.20136667 127.149293,11.7387 122.882414,12.2260333 C120.960673,12.4457 119.036739,12.0827 117.144457,11.7450333 C115.594717,11.4683667 113.489639,11.5580333 112.025143,10.9657 C109.295782,9.86236667 109.471283,4.74003333 112.73467,4.9267" id="sunglasses_2_Frame" /><path d="M73.1094302,7.01263333 C71.1631869,4.71263333 66.0912197,3.38463333 62.8914864,3.38463333 C59.6914198,3.38463333 54.7681378,4.71263333 52.8222279,7.01263333 C51.8407719,8.1723 51.8074344,9.72396667 53.5083137,10.4509667 C55.6262451,11.3566333 57.5174814,9.7143 59.2126933,8.8553 C61.3809643,7.75663333 64.7120473,7.8773 66.7189648,8.8553 C68.4271783,9.68796667 70.3050797,11.3566333 72.4233444,10.4509667 C74.1242237,9.72396667 74.0908862,8.1723 73.1094302,7.01263333" id="sunglasses_2_Frame" /></g></g></g></g>
    </g>
</g>
        </g>
    </g>
</svg>